<svg width="197" height="46" viewBox="0 0 197 46" fill="none" xmlns="http://www.w3.org/2000/svg">
<path d="M28.0894 26.4143C28.0206 26.4149 27.9526 26.4294 27.8883 26.4593L23.9313 28.2286C23.652 28.3537 23.5173 28.6755 23.6206 28.9631L26.6186 37.2034C26.7301 37.5103 27.0226 37.7151 27.3491 37.715H32.0171C32.2813 37.7148 32.4643 37.4517 32.3747 37.2034L28.5699 26.7483C28.5216 26.6168 28.421 26.5098 28.2925 26.4554C28.2279 26.4289 28.1578 26.4143 28.0894 26.4143Z" fill="#212121"/>
<path d="M86.375 17.498L89.1758 37.8575H97.8946L108.975 17.498H102.576L94.5352 32.8185L92.7343 17.498H86.375Z" fill="#212121"/>
<path d="M77.1641 17.498C77.0843 18.4314 76.9646 19.4172 76.8047 20.4573C76.6713 21.4706 76.4717 22.738 76.205 24.258L74.7656 32.5783C74.6057 33.4316 74.4576 34.3102 74.3242 35.2169C74.1908 36.1235 74.125 37.0042 74.125 37.8575H80.3242C80.3242 36.9242 80.3922 36.0045 80.5253 35.0979C80.6587 34.1645 80.8046 33.2179 80.9647 32.2579L82.3651 24.4181C82.5519 23.2981 82.7389 22.1375 82.9257 20.9375C83.1124 19.7375 83.2443 18.5914 83.3241 17.498H77.1641Z" fill="#212121"/>
<path d="M188.859 17.1777C187.206 17.1777 185.659 17.4575 184.219 18.0177C182.805 18.5777 181.659 19.4047 180.779 20.498C179.899 21.5646 179.459 22.8836 179.459 24.457C179.459 25.577 179.685 26.4843 180.139 27.1777C180.619 27.871 181.232 28.4183 181.978 28.8183C182.725 29.2184 183.511 29.5373 184.338 29.7772C185.165 29.9904 185.953 30.1778 186.699 30.3378C187.446 30.4977 188.045 30.6974 188.498 30.9376C188.978 31.1776 189.219 31.5109 189.219 31.9376C189.219 32.4442 188.939 32.831 188.379 33.0977C187.819 33.3645 187.019 33.4979 185.979 33.4979C184.805 33.4979 183.871 33.284 183.178 32.8573C182.511 32.404 182.178 31.7642 182.178 30.9376L176.859 32.2167C176.993 34.03 177.806 35.4972 179.299 36.6172C180.792 37.7106 182.926 38.2579 185.699 38.2579C187.353 38.2579 188.898 37.9901 190.338 37.4569C191.805 36.9236 192.979 36.1234 193.859 35.0567C194.739 33.99 195.178 32.6566 195.178 31.0566C195.178 29.9633 194.939 29.0847 194.459 28.418C194.006 27.7247 193.405 27.1916 192.658 26.8183C191.938 26.4183 191.165 26.1119 190.338 25.8985C189.511 25.6585 188.725 25.4446 187.979 25.2579C187.259 25.0712 186.658 24.8574 186.178 24.6173C185.724 24.3773 185.498 24.0314 185.498 23.5781C185.498 23.0714 185.766 22.6702 186.299 22.3769C186.832 22.0836 187.511 21.9374 188.338 21.9374C190.151 21.9374 191.139 22.6041 191.299 23.9375L196.539 22.578C196.352 21.0581 195.564 19.7783 194.178 18.7383C192.791 17.6983 191.019 17.1777 188.859 17.1777Z" fill="#212121"/>
<path d="M168.961 17.1777C167.308 17.1777 165.76 17.4575 164.32 18.0177C162.907 18.5777 161.761 19.4047 160.881 20.498C160.001 21.5646 159.561 22.8836 159.561 24.457C159.561 25.577 159.787 26.4843 160.24 27.1777C160.72 27.871 161.333 28.4183 162.08 28.8183C162.827 29.2184 163.615 29.5373 164.441 29.7772C165.268 29.9904 166.054 30.1778 166.801 30.3378C167.548 30.4977 168.146 30.6974 168.6 30.9376C169.08 31.1776 169.32 31.5109 169.32 31.9376C169.32 32.4442 169.041 32.831 168.48 33.0977C167.92 33.3645 167.12 33.4979 166.08 33.4979C164.907 33.4979 163.975 33.284 163.281 32.8573C162.615 32.404 162.281 31.7642 162.281 30.9376L156.961 32.2167C157.094 34.03 157.907 35.4972 159.4 36.6172C160.894 37.7106 163.027 38.2579 165.801 38.2579C167.454 38.2579 168.999 37.9901 170.439 37.4569C171.906 36.9236 173.081 36.1234 173.961 35.0567C174.841 33.99 175.281 32.6566 175.281 31.0566C175.281 29.9633 175.041 29.0847 174.561 28.418C174.107 27.7247 173.506 27.1916 172.76 26.8183C172.04 26.4183 171.266 26.1119 170.439 25.8985C169.613 25.6585 168.827 25.4446 168.08 25.2579C167.36 25.0712 166.761 24.8574 166.281 24.6173C165.828 24.3773 165.6 24.0314 165.6 23.5781C165.6 23.0714 165.867 22.6702 166.4 22.3769C166.934 22.0836 167.615 21.9374 168.441 21.9374C170.255 21.9374 171.24 22.6041 171.4 23.9375L176.641 22.578C176.454 21.0581 175.668 19.7783 174.281 18.7383C172.895 17.6983 171.121 17.1777 168.961 17.1777Z" fill="#212121"/>
<path d="M145.74 17.1777C143.954 17.1777 142.287 17.5111 140.74 18.1777C139.22 18.8444 137.887 19.7785 136.74 20.9785C135.62 22.1518 134.74 23.551 134.1 25.1776C133.486 26.7776 133.18 28.5248 133.18 30.4181C133.18 32.8447 133.846 34.7645 135.18 36.1778C136.54 37.5645 138.381 38.2579 140.701 38.2579C143.555 38.2579 145.847 36.8834 147.58 34.1367C147.447 34.75 147.342 35.3775 147.262 36.0175C147.182 36.6575 147.141 37.2707 147.141 37.8574H153.18C153.18 36.9508 153.234 35.8973 153.34 34.6973C153.474 33.4973 153.661 32.2317 153.901 30.8984L154.981 24.8574C155.247 23.4441 155.5 22.1107 155.741 20.8574C156.007 19.5774 156.234 18.4848 156.42 17.5782H152.26L151.541 18.9785C150.075 17.7785 148.14 17.1777 145.74 17.1777ZM145.9 22.418C147.26 22.418 148.314 22.7513 149.061 23.418L148.66 25.5781C148.287 27.8448 147.567 29.6451 146.5 30.9784C145.46 32.2851 144.221 32.9374 142.781 32.9374C140.621 32.9374 139.541 31.777 139.541 29.457C139.541 27.3771 140.128 25.6836 141.301 24.3769C142.474 23.0703 144.007 22.418 145.9 22.418Z" fill="#212121"/>
<path d="M123.459 17.1777C120.686 17.1777 118.432 18.5112 116.699 21.1778C116.859 20.5645 116.993 19.9512 117.099 19.3379C117.206 18.6979 117.286 18.0846 117.34 17.4979H111.299C111.192 18.4312 111.058 19.4171 110.898 20.4571C110.765 21.4704 110.565 22.7379 110.299 24.2579L106.5 45.8575H112.658L114.059 37.9375L114.1 37.418C115.326 37.978 116.767 38.2579 118.42 38.2579C120.233 38.2579 121.9 37.9369 123.42 37.2968C124.967 36.6302 126.3 35.698 127.42 34.498C128.567 33.298 129.445 31.897 130.059 30.297C130.699 28.6703 131.02 26.9252 131.02 25.0586C131.02 22.6053 130.339 20.6835 128.979 19.2968C127.645 17.8835 125.806 17.1777 123.459 17.1777ZM121.379 22.498C123.565 22.498 124.658 23.6586 124.658 25.9786C124.658 28.0585 124.059 29.75 122.859 31.0566C121.686 32.3633 120.153 33.0177 118.26 33.0177C116.9 33.0177 115.846 32.6967 115.099 32.0566L115.5 29.8575C115.9 27.5909 116.618 25.8047 117.658 24.498C118.725 23.1647 119.965 22.498 121.379 22.498Z" fill="#212121"/>
<path d="M46.875 17.1777C45.0617 17.1777 43.3826 17.5111 41.836 18.1777C40.2893 18.8178 38.9416 19.7251 37.7949 20.8984C36.6482 22.0718 35.7552 23.4442 35.1152 25.0175C34.4752 26.5909 34.1562 28.2987 34.1562 30.1387C34.1562 32.6454 34.9546 34.6311 36.5547 36.0977C38.1813 37.5377 40.422 38.2579 43.2754 38.2579C47.222 38.2579 50.1829 36.8711 52.1562 34.0977L48.4746 30.6582C47.3546 32.1515 45.9554 32.8984 44.2754 32.8984C41.7954 32.9248 40.5547 31.7503 40.5547 29.377C40.5547 28.097 40.7954 26.9385 41.2753 25.8985C41.782 24.8585 42.463 24.0436 43.3164 23.457C44.1697 22.8436 45.1286 22.537 46.1953 22.537C47.022 22.537 47.703 22.7121 48.2363 23.0586C48.7964 23.4051 49.1957 23.9648 49.4356 24.7382L54.3555 21.4569C53.6888 19.9903 52.728 18.9101 51.4746 18.2167C50.2213 17.5234 48.6884 17.1777 46.875 17.1777Z" fill="#212121"/>
<path d="M61.4415 13.3379L60.6407 17.498H57.1622L56.2812 22.5782H59.6406L58.2012 30.1388C57.9079 31.7121 58.0005 33.1113 58.4805 34.338C58.9605 35.5647 59.7609 36.5236 60.8809 37.2169C62.0275 37.9103 63.4554 38.258 65.1621 38.258C66.4688 38.258 67.6541 38.1241 68.7208 37.8575C69.7874 37.5642 70.668 37.1382 71.3614 36.5782L70.4004 31.8985C69.2538 32.6185 68.0685 32.9786 66.8419 32.9786C64.7619 32.9786 63.9203 31.9643 64.3204 29.9377L65.7618 22.5782H72.2012L73.0821 17.498H66.7207L67.5215 13.3379H61.4415Z" fill="#212121"/>
<path d="M10.746 9.25195C10.4459 9.25195 10.1202 9.4817 10.0175 9.76361C6.68794 18.9086 3.36217 28.0566 0.0311633 37.2012C-0.0716399 37.4831 0.0881935 37.7128 0.388666 37.7128H5.05667C5.35677 37.7128 5.68241 37.4831 5.78517 37.2012C8.41644 29.9743 11.0475 22.7447 13.6777 15.5176C13.7805 15.2356 14.1079 15.008 14.4082 15.008H18C18.3266 15.0079 18.6168 15.2104 18.7285 15.5176L20.3808 20.0625C20.4859 20.3509 20.3506 20.6699 20.0702 20.7949L14.0722 23.4805C13.7554 23.623 13.511 23.8864 13.3925 24.213L11.0292 30.6973C10.9264 30.9796 11.067 31.1086 11.3399 30.9865C16.5557 28.6531 21.7729 26.3192 26.9883 23.9846C27.2623 23.8618 27.401 23.5344 27.2989 23.2522C25.6623 18.757 24.0286 14.2594 22.3927 9.76384C22.2899 9.48189 21.9626 9.25218 21.6622 9.25218L10.746 9.25195Z" fill="#212121"/>
<path d="M81.8164 7.81836C80.6164 7.81836 79.6698 8.17854 78.9765 8.89842C78.3098 9.61838 77.9766 10.4703 77.9766 11.4569C77.9766 12.4436 78.3242 13.2975 79.0175 14.0175C79.7109 14.7375 80.643 15.0976 81.8164 15.0976C82.9897 15.0976 83.9238 14.7374 84.6171 14.0175C85.3105 13.2975 85.6582 12.4436 85.6582 11.4569C85.6582 10.4703 85.3105 9.61838 84.6171 8.89842C83.9238 8.17842 82.9897 7.81836 81.8164 7.81836Z" fill="#212121"/>
<path d="M24.6906 0C24.1882 0 23.6884 0.0558333 23.1985 0.167707C22.7092 0.279581 22.2327 0.445981 21.7805 0.663909C21.3284 0.881987 20.9033 1.14967 20.5109 1.46277C20.1179 1.77609 19.7599 2.132 19.4465 2.52507C19.1336 2.91738 18.8657 3.34453 18.6477 3.7966C18.4296 4.24939 18.2633 4.72467 18.1516 5.21461C18.0756 5.54797 18.0257 5.88601 18.0011 6.22639C17.9823 6.49058 18.1988 6.70691 18.464 6.70691H23.8918C24.1259 6.70672 24.3544 6.7785 24.5462 6.91268C24.7381 7.04686 24.8839 7.23689 24.9641 7.45686L26.8019 12.5056C26.8953 12.7626 27.1829 12.9111 27.4387 12.814C27.4927 12.7914 27.5472 12.7714 27.6008 12.7494C28.0535 12.5321 28.4813 12.265 28.8743 11.9524C29.2667 11.6387 29.622 11.2831 29.9348 10.8901C30.2481 10.4978 30.5157 10.0707 30.7336 9.6186C30.9517 9.16581 31.1181 8.69053 31.2297 8.20059C31.3416 7.71125 31.3975 7.21021 31.3975 6.70829C31.3985 6.53217 31.3938 6.35677 31.3786 6.18095C31.3635 6.00558 31.3484 5.83135 31.32 5.65753C31.2898 5.4848 31.2573 5.31214 31.2165 5.14195C31.1753 4.97111 31.1284 4.80112 31.074 4.63421C31.02 4.46716 30.9576 4.30238 30.8903 4.14009C30.8231 3.97757 30.7494 3.81831 30.6696 3.66142C30.5903 3.50532 30.5029 3.35241 30.4118 3.20259C30.32 3.05254 30.2244 2.9069 30.1208 2.76498C30.0176 2.62287 29.9084 2.48455 29.7946 2.3509C29.6805 2.21711 29.5596 2.0887 29.4352 1.96427C29.3109 1.83993 29.1824 1.72086 29.0485 1.60671C28.9147 1.49257 28.7764 1.38371 28.6345 1.28053C28.4924 1.17697 28.3464 1.0794 28.1969 0.987558C28.0469 0.896094 27.893 0.810722 27.736 0.73173C27.5799 0.651604 27.4211 0.578241 27.2594 0.510965C27.0973 0.444068 26.9325 0.383233 26.7653 0.329186C26.5979 0.275139 26.4281 0.227442 26.2574 0.186623C26.0866 0.145804 25.9154 0.112713 25.7419 0.0851224C25.5688 0.0548862 25.3953 0.0365913 25.2203 0.022607C25.0454 0.00748893 24.8681 0.00369094 24.6931 0.00369094L24.6906 0Z" fill="#212121"/>
</svg>
