<svg width="81" height="96" viewBox="0 0 81 96" fill="none" xmlns="http://www.w3.org/2000/svg">
<path d="M56.56 0.418079C57.776 0.140311 59.0195 0 60.267 0L60.279 0.0104245C60.7142 0.0104245 61.1501 0.0194577 61.5843 0.0554146C62.0183 0.0895737 62.4507 0.137674 62.8804 0.209588C63.3112 0.277906 63.7381 0.363136 64.1624 0.464715C64.5862 0.566293 65.006 0.684112 65.4213 0.818052C65.836 0.951991 66.245 1.1022 66.6477 1.2685C67.0492 1.4357 67.4448 1.61795 67.8322 1.81661C68.2217 2.01348 68.6028 2.22563 68.9749 2.45306C69.3464 2.68138 69.7096 2.92513 70.062 3.18223C70.4143 3.43842 70.7568 3.70724 71.0885 3.9904C71.4208 4.27356 71.7418 4.56925 72.0502 4.87759C72.3585 5.18655 72.6542 5.50713 72.9373 5.83884C73.2205 6.17054 73.4893 6.513 73.7455 6.86538C74.0026 7.21803 74.2462 7.58067 74.4745 7.95282C74.7011 8.32408 74.9141 8.70331 75.111 9.09074C75.3096 9.47989 75.492 9.87607 75.6592 10.2797C75.8255 10.6827 75.9757 11.0921 76.1097 11.5065C76.2454 11.9213 76.3649 12.3408 76.4674 12.7651C76.569 13.1877 76.6507 13.6136 76.7226 14.0424C76.7901 14.4739 76.8351 14.9082 76.8711 15.3433C76.907 15.7794 76.9182 16.2166 76.9159 16.6535C76.9159 17.8994 76.7757 19.1412 76.498 20.3558C76.2208 21.5719 75.8081 22.7527 75.2669 23.8766C74.7259 24.9989 74.061 26.0569 73.2834 27.0308C72.507 28.0062 71.6236 28.8909 70.6496 29.6693C69.6741 30.4451 68.6145 31.109 67.4908 31.6483C67.4218 31.6763 67.3524 31.7032 67.283 31.7301C67.2187 31.755 67.1543 31.7799 67.0899 31.8058C66.4551 32.045 65.7369 31.6798 65.505 31.0415L60.945 18.5112C60.7463 17.9654 60.3845 17.4936 59.9087 17.1604C59.4329 16.8273 58.8662 16.6485 58.2854 16.6485H44.8104C44.1523 16.6485 43.6166 16.1142 43.6615 15.4579C43.7217 14.613 43.8476 13.7732 44.0364 12.9462C44.3135 11.73 44.7261 10.5488 45.2673 9.42488C45.8083 8.30257 46.4743 7.24499 47.2509 6.27118C48.0288 5.29558 48.9138 4.4097 49.8894 3.63213C50.8633 2.85501 51.9212 2.18987 53.0435 1.64872C54.1659 1.10802 55.3454 0.695846 56.56 0.418079Z" fill="white"/>
<path d="M26.6715 24.6832C25.9263 24.6832 25.1195 25.2512 24.8645 25.9511C21.2676 35.8304 17.6726 45.7112 14.0775 55.5922C9.41223 68.4144 4.74692 81.2369 0.0773583 94.0563C-0.177934 94.7565 0.219332 95.3242 0.964534 95.3242H12.5499C13.2951 95.3242 14.1066 94.7563 14.3616 94.0563C18.9568 81.4354 23.5508 68.8119 28.1445 56.1893C30.0799 50.8711 32.0153 45.5531 33.9507 40.2355C34.206 39.5352 35.0168 38.9675 35.7623 38.9675H44.6767C45.4876 38.9674 46.2112 39.4735 46.4884 40.2355L50.5901 51.5143C50.8508 52.2298 50.5182 53.0249 49.8189 53.3353L34.9307 59.9971C34.1441 60.3504 33.5341 61.0069 33.2399 61.8176L27.3775 77.9136C27.1222 78.6139 27.4683 78.9337 28.1488 78.6296C31.5887 77.0905 35.0288 75.5516 38.4688 74.0126C47.9755 69.7596 57.4824 65.5065 66.9879 61.2514C67.6684 60.9466 68.0139 60.1308 67.7592 59.4304C65.3081 52.698 62.8589 45.9643 60.4098 39.2307L60.4031 39.2122C58.7953 34.7919 57.1876 30.3715 55.5793 25.9517C55.3241 25.2514 54.5132 24.6832 53.7677 24.6832H26.6715Z" fill="white"/>
<path d="M70.2324 67.3794C69.9115 67.2428 69.5474 67.2467 69.229 67.3888L59.4089 71.783C58.7159 72.0931 58.3797 72.8856 58.6376 73.5996L66.0793 94.0531C66.3562 94.8145 67.0806 95.3211 67.891 95.321H79.4764C80.1317 95.3204 80.5877 94.6695 80.3636 94.0531L70.9198 68.1042C70.8003 67.7779 70.5515 67.5152 70.2324 67.3794Z" fill="white"/>
</svg>
